<svg width="787.256" height="100.586" viewBox="0 0 787.256 100.586" xmlns="http://www.w3.org/2000/svg"><g id="svgGroup" stroke-linecap="round" fill-rule="evenodd" font-size="9pt" stroke="#ffffff" stroke-width="0.5mm" fill="#ffffff" style="stroke:#ffffff;stroke-width:0.5mm;fill:#ffffff"><path d="M 50.439 67.822 L 50.439 76.514 L 0 76.514 L 0 69.385 L 37.354 13.818 L 1.221 13.818 L 1.221 5.127 L 49.463 5.127 L 49.463 12.256 L 12.061 67.822 L 50.439 67.822 Z" id="0" vector-effect="non-scaling-stroke"/><path d="M 102.734 40.137 L 102.734 76.514 L 95.703 76.514 L 93.799 68.701 L 93.408 68.701 A 31.63 31.63 0 0 1 90.967 71.538 A 24.62 24.62 0 0 1 88.721 73.584 A 16.582 16.582 0 0 1 83.674 76.322 A 19.017 19.017 0 0 1 83.081 76.514 A 20.406 20.406 0 0 1 80.135 77.164 Q 78.63 77.388 76.906 77.458 A 39.716 39.716 0 0 1 75.293 77.49 A 23.249 23.249 0 0 1 70.679 77.051 A 18.392 18.392 0 0 1 66.602 75.733 Q 62.793 73.975 60.62 70.435 A 13.832 13.832 0 0 1 58.99 66.412 Q 58.447 64.16 58.447 61.426 A 16.93 16.93 0 0 1 59.261 56.041 A 13.548 13.548 0 0 1 64.746 48.975 A 21.784 21.784 0 0 1 70.045 46.442 Q 75.592 44.588 83.838 44.336 L 93.115 43.945 L 93.115 40.918 Q 93.115 35.011 90.646 32.367 A 6.381 6.381 0 0 0 90.308 32.031 A 9.258 9.258 0 0 0 86.478 29.948 Q 85.054 29.546 83.355 29.464 A 18.425 18.425 0 0 0 82.471 29.443 A 26.402 26.402 0 0 0 74.512 30.64 A 57.438 57.438 0 0 0 67.187 33.496 L 64.063 26.367 A 40.029 40.029 0 0 1 68.679 24.371 A 51.158 51.158 0 0 1 72.729 23.096 A 38.598 38.598 0 0 1 82.578 21.779 A 42.793 42.793 0 0 1 82.91 21.777 A 35.82 35.82 0 0 1 88.381 22.167 Q 94.335 23.089 97.803 26.196 A 13.541 13.541 0 0 1 101.501 31.891 Q 102.291 34.124 102.575 36.88 A 31.823 31.823 0 0 1 102.734 40.137 Z M 93.018 55.225 L 93.018 50.391 L 85.498 50.733 A 53.052 53.052 0 0 0 81.181 51.054 Q 76.875 51.568 74.198 52.792 A 10.425 10.425 0 0 0 72.388 53.833 Q 68.604 56.592 68.604 61.524 A 11.243 11.243 0 0 0 68.844 63.929 Q 69.169 65.414 69.936 66.508 A 6.023 6.023 0 0 0 71.191 67.822 A 9.103 9.103 0 0 0 74.518 69.413 Q 75.805 69.747 77.317 69.81 A 17.157 17.157 0 0 0 78.027 69.824 A 19.05 19.05 0 0 0 82.961 69.216 A 14.397 14.397 0 0 0 88.794 66.138 A 11.778 11.778 0 0 0 92.411 60.193 Q 92.942 58.242 93.008 55.901 A 23.886 23.886 0 0 0 93.018 55.225 Z" id="1" vector-effect="non-scaling-stroke"/><path d="M 119.092 0.537 L 128.857 0.537 L 128.857 38.623 Q 128.857 40.72 128.708 43.349 A 119.479 119.479 0 0 1 128.687 43.726 A 4338.172 4338.172 0 0 1 128.522 46.466 A 3327.439 3327.439 0 0 1 128.369 48.975 L 128.711 48.975 Q 129.834 47.51 131.714 45.117 Q 133.153 43.285 134.349 41.883 A 64.251 64.251 0 0 1 135.059 41.065 L 152.246 22.705 L 163.574 22.705 L 141.992 45.801 L 165.088 76.514 L 153.467 76.514 L 135.352 51.953 L 128.857 57.715 L 128.857 76.514 L 119.092 76.514 L 119.092 0.537 Z" id="2" vector-effect="non-scaling-stroke"/><path d="M 214.453 40.137 L 214.453 76.514 L 207.422 76.514 L 205.518 68.701 L 205.127 68.701 A 31.63 31.63 0 0 1 202.685 71.538 A 24.62 24.62 0 0 1 200.439 73.584 A 16.582 16.582 0 0 1 195.393 76.322 A 19.017 19.017 0 0 1 194.8 76.514 A 20.406 20.406 0 0 1 191.854 77.164 Q 190.349 77.388 188.625 77.458 A 39.716 39.716 0 0 1 187.012 77.49 A 23.249 23.249 0 0 1 182.397 77.051 A 18.392 18.392 0 0 1 178.32 75.733 Q 174.512 73.975 172.339 70.435 A 13.832 13.832 0 0 1 170.709 66.412 Q 170.166 64.16 170.166 61.426 A 16.93 16.93 0 0 1 170.98 56.041 A 13.548 13.548 0 0 1 176.465 48.975 A 21.784 21.784 0 0 1 181.764 46.442 Q 187.311 44.588 195.557 44.336 L 204.834 43.945 L 204.834 40.918 Q 204.834 35.011 202.364 32.367 A 6.381 6.381 0 0 0 202.026 32.031 A 9.258 9.258 0 0 0 198.197 29.948 Q 196.772 29.546 195.073 29.464 A 18.425 18.425 0 0 0 194.189 29.443 A 26.402 26.402 0 0 0 186.23 30.64 A 57.438 57.438 0 0 0 178.906 33.496 L 175.781 26.367 A 40.029 40.029 0 0 1 180.398 24.371 A 51.158 51.158 0 0 1 184.448 23.096 A 38.598 38.598 0 0 1 194.297 21.779 A 42.793 42.793 0 0 1 194.629 21.777 A 35.82 35.82 0 0 1 200.1 22.167 Q 206.054 23.089 209.521 26.196 A 13.541 13.541 0 0 1 213.22 31.891 Q 214.01 34.124 214.294 36.88 A 31.823 31.823 0 0 1 214.453 40.137 Z M 204.736 55.225 L 204.736 50.391 L 197.217 50.733 A 53.052 53.052 0 0 0 192.9 51.054 Q 188.593 51.568 185.917 52.792 A 10.425 10.425 0 0 0 184.106 53.833 Q 180.322 56.592 180.322 61.524 A 11.243 11.243 0 0 0 180.563 63.929 Q 180.888 65.414 181.655 66.508 A 6.023 6.023 0 0 0 182.91 67.822 A 9.103 9.103 0 0 0 186.237 69.413 Q 187.524 69.747 189.036 69.81 A 17.157 17.157 0 0 0 189.746 69.824 A 19.05 19.05 0 0 0 194.679 69.216 A 14.397 14.397 0 0 0 200.513 66.138 A 11.778 11.778 0 0 0 204.13 60.193 Q 204.661 58.242 204.727 55.901 A 23.886 23.886 0 0 0 204.736 55.225 Z" id="3" vector-effect="non-scaling-stroke"/><path d="M 262.793 22.315 L 261.768 31.445 Q 260.596 31.152 259.058 30.957 A 25.325 25.325 0 0 0 257.397 30.799 A 19.843 19.843 0 0 0 256.201 30.762 A 15.427 15.427 0 0 0 250.244 31.934 A 14.656 14.656 0 0 0 245.264 35.327 A 15.225 15.225 0 0 0 242.473 39.395 A 18.284 18.284 0 0 0 241.895 40.747 A 18.171 18.171 0 0 0 240.891 44.747 A 24.069 24.069 0 0 0 240.674 48.047 L 240.674 76.514 L 230.811 76.514 L 230.811 22.705 L 238.721 22.705 L 239.893 32.422 L 240.332 32.422 Q 241.992 29.492 244.36 27.051 A 18.288 18.288 0 0 1 249.829 23.169 A 15.625 15.625 0 0 1 255.303 21.779 A 18.718 18.718 0 0 1 256.689 21.729 A 28.845 28.845 0 0 1 258.415 21.783 A 36.601 36.601 0 0 1 259.863 21.9 A 41.333 41.333 0 0 1 261.076 22.038 Q 262.03 22.162 262.793 22.315 Z" id="4" vector-effect="non-scaling-stroke"/><path d="M 286.035 76.465 L 264.551 22.705 L 275.146 22.705 L 286.572 53.711 A 165.187 165.187 0 0 1 288.017 57.805 A 150.201 150.201 0 0 1 288.208 58.374 Q 288.965 60.645 289.526 62.769 A 45.914 45.914 0 0 1 290.408 66.815 A 42.377 42.377 0 0 1 290.43 66.943 L 290.771 66.943 A 72.809 72.809 0 0 1 291.28 64.925 Q 291.76 63.117 292.432 60.889 A 185.395 185.395 0 0 1 294.775 53.662 L 305.713 22.705 L 316.26 22.705 L 293.018 84.131 A 41.196 41.196 0 0 1 290.912 88.898 A 31.434 31.434 0 0 1 288.403 92.944 A 20.004 20.004 0 0 1 284.415 97.047 A 17.9 17.9 0 0 1 281.982 98.608 Q 278.271 100.586 273.193 100.586 A 34.826 34.826 0 0 1 271.25 100.535 Q 270.07 100.469 269.067 100.317 A 37.231 37.231 0 0 1 267.803 100.106 Q 266.809 99.921 266.016 99.707 L 266.016 91.895 A 20.048 20.048 0 0 0 266.887 92.071 Q 267.374 92.159 267.932 92.24 A 40.505 40.505 0 0 0 268.628 92.334 A 25.056 25.056 0 0 0 271.413 92.526 A 27.839 27.839 0 0 0 271.826 92.529 A 13.29 13.29 0 0 0 274.354 92.3 A 9.69 9.69 0 0 0 277.124 91.333 A 11.132 11.132 0 0 0 280.629 88.343 A 13.055 13.055 0 0 0 280.933 87.94 Q 282.52 85.742 283.594 82.813 L 286.035 76.465 Z" id="5" vector-effect="non-scaling-stroke"/><path d="M 365.039 40.137 L 365.039 76.514 L 358.008 76.514 L 356.104 68.701 L 355.713 68.701 A 31.63 31.63 0 0 1 353.271 71.538 A 24.62 24.62 0 0 1 351.025 73.584 A 16.582 16.582 0 0 1 345.979 76.322 A 19.017 19.017 0 0 1 345.386 76.514 A 20.406 20.406 0 0 1 342.44 77.164 Q 340.935 77.388 339.211 77.458 A 39.716 39.716 0 0 1 337.598 77.49 A 23.249 23.249 0 0 1 332.983 77.051 A 18.392 18.392 0 0 1 328.906 75.733 Q 325.098 73.975 322.925 70.435 A 13.832 13.832 0 0 1 321.295 66.412 Q 320.752 64.16 320.752 61.426 A 16.93 16.93 0 0 1 321.565 56.041 A 13.548 13.548 0 0 1 327.051 48.975 A 21.784 21.784 0 0 1 332.349 46.442 Q 337.897 44.588 346.143 44.336 L 355.42 43.945 L 355.42 40.918 Q 355.42 35.011 352.95 32.367 A 6.381 6.381 0 0 0 352.612 32.031 A 9.258 9.258 0 0 0 348.782 29.948 Q 347.358 29.546 345.659 29.464 A 18.425 18.425 0 0 0 344.775 29.443 A 26.402 26.402 0 0 0 336.816 30.64 A 57.438 57.438 0 0 0 329.492 33.496 L 326.367 26.367 A 40.029 40.029 0 0 1 330.984 24.371 A 51.158 51.158 0 0 1 335.034 23.096 A 38.598 38.598 0 0 1 344.883 21.779 A 42.793 42.793 0 0 1 345.215 21.777 A 35.82 35.82 0 0 1 350.686 22.167 Q 356.64 23.089 360.107 26.196 A 13.541 13.541 0 0 1 363.806 31.891 Q 364.596 34.124 364.88 36.88 A 31.823 31.823 0 0 1 365.039 40.137 Z M 355.322 55.225 L 355.322 50.391 L 347.803 50.733 A 53.052 53.052 0 0 0 343.486 51.054 Q 339.179 51.568 336.503 52.792 A 10.425 10.425 0 0 0 334.692 53.833 Q 330.908 56.592 330.908 61.524 A 11.243 11.243 0 0 0 331.148 63.929 Q 331.474 65.414 332.241 66.508 A 6.023 6.023 0 0 0 333.496 67.822 A 9.103 9.103 0 0 0 336.823 69.413 Q 338.11 69.747 339.622 69.81 A 17.157 17.157 0 0 0 340.332 69.824 A 19.05 19.05 0 0 0 345.265 69.216 A 14.397 14.397 0 0 0 351.099 66.138 A 11.778 11.778 0 0 0 354.716 60.193 Q 355.246 58.242 355.313 55.901 A 23.886 23.886 0 0 0 355.322 55.225 Z" id="6" vector-effect="non-scaling-stroke"/><path d="M 408.594 76.514 L 408.594 5.127 L 429.297 5.127 A 74.838 74.838 0 0 1 436.427 5.444 Q 443.904 6.162 448.643 8.507 A 19.662 19.662 0 0 1 449.805 9.131 A 13.25 13.25 0 0 1 456.259 18.35 A 22.145 22.145 0 0 1 456.689 22.852 Q 456.689 27.002 455.176 30.274 A 13.98 13.98 0 0 1 450.781 35.693 A 15.219 15.219 0 0 1 446.694 37.835 A 20.143 20.143 0 0 1 443.701 38.623 L 443.701 39.111 A 26.212 26.212 0 0 1 448.456 40.35 A 21.607 21.607 0 0 1 451.514 41.748 Q 454.932 43.652 456.909 47.144 Q 458.887 50.635 458.887 56.104 A 23.143 23.143 0 0 1 458.298 61.45 A 17.389 17.389 0 0 1 455.811 67.212 A 18.468 18.468 0 0 1 449.119 73.18 A 23.194 23.194 0 0 1 447.095 74.146 A 28.869 28.869 0 0 1 440.924 75.922 Q 437.573 76.514 433.691 76.514 L 408.594 76.514 Z M 431.543 43.408 L 418.604 43.408 L 418.604 68.067 L 432.227 68.067 Q 440.038 68.067 443.787 65.358 A 8.755 8.755 0 0 0 444.702 64.6 A 11.516 11.516 0 0 0 448.138 57.899 A 16.446 16.446 0 0 0 448.34 55.274 A 14.153 14.153 0 0 0 448.027 52.227 A 10.684 10.684 0 0 0 446.704 48.901 A 8.93 8.93 0 0 0 444.069 46.195 Q 442.981 45.454 441.593 44.898 A 16.07 16.07 0 0 0 441.406 44.824 Q 437.744 43.408 431.543 43.408 Z M 418.604 13.525 L 418.604 35.156 L 431.055 35.156 A 41.56 41.56 0 0 0 435.043 34.979 Q 439.009 34.595 441.409 33.378 A 8.132 8.132 0 0 0 443.018 32.324 Q 446.338 29.492 446.338 24.072 A 12.48 12.48 0 0 0 445.971 20.943 A 7.961 7.961 0 0 0 442.383 15.991 Q 438.856 13.793 431.643 13.554 A 54.809 54.809 0 0 0 429.834 13.525 L 418.604 13.525 Z" id="8" vector-effect="non-scaling-stroke"/><path d="M 519.209 55.7 A 43.484 43.484 0 0 0 519.629 49.512 Q 519.629 40.674 516.504 34.473 A 26.691 26.691 0 0 0 516.104 33.709 A 22.042 22.042 0 0 0 507.764 25 A 23.201 23.201 0 0 0 501.697 22.546 A 28.562 28.562 0 0 0 494.727 21.729 A 32.333 32.333 0 0 0 489.118 22.195 A 23.878 23.878 0 0 0 481.274 24.976 A 20.851 20.851 0 0 0 477.485 27.762 A 22.308 22.308 0 0 0 472.607 34.448 A 25.459 25.459 0 0 0 471.971 35.867 Q 470.673 39.011 470.08 42.762 A 43.237 43.237 0 0 0 469.58 49.512 A 42.463 42.463 0 0 0 469.926 55.047 A 31.818 31.818 0 0 0 471.387 61.353 A 28.706 28.706 0 0 0 472.523 64.15 A 23.428 23.428 0 0 0 476.514 70.142 Q 479.834 73.731 484.399 75.61 A 23.991 23.991 0 0 0 487.951 76.756 A 27.75 27.75 0 0 0 494.434 77.49 A 32.625 32.625 0 0 0 498.656 77.226 A 25.385 25.385 0 0 0 504.932 75.61 A 21.676 21.676 0 0 0 512.866 70.142 Q 516.162 66.553 517.896 61.353 A 32.467 32.467 0 0 0 519.209 55.7 Z M 479.639 49.512 A 40.856 40.856 0 0 0 479.901 54.264 Q 480.188 56.712 480.789 58.816 A 22.84 22.84 0 0 0 481.226 60.181 A 16.269 16.269 0 0 0 483.015 63.804 A 12.658 12.658 0 0 0 486.108 67.041 A 11.985 11.985 0 0 0 490.358 68.959 Q 492.302 69.434 494.629 69.434 A 18.036 18.036 0 0 0 498.35 69.07 Q 500.797 68.555 502.69 67.307 A 11.2 11.2 0 0 0 503.076 67.041 A 12.89 12.89 0 0 0 506.941 62.53 A 17.01 17.01 0 0 0 507.959 60.181 A 26.121 26.121 0 0 0 509.081 55.611 Q 509.432 53.376 509.503 50.83 A 47.041 47.041 0 0 0 509.521 49.512 Q 509.521 44.273 508.388 40.308 A 22.309 22.309 0 0 0 507.959 38.965 Q 506.396 34.57 503.101 32.227 A 12.007 12.007 0 0 0 499.041 30.398 Q 497.385 29.979 495.443 29.901 A 22.591 22.591 0 0 0 494.531 29.883 Q 486.816 29.883 483.228 35.034 A 17.77 17.77 0 0 0 480.838 40.124 Q 479.639 44.12 479.639 49.512 Z" id="9" vector-effect="non-scaling-stroke"/><path d="M 569.043 22.705 L 578.906 22.705 L 578.906 76.514 L 571.045 76.514 L 569.678 69.141 L 569.141 69.141 A 15.01 15.01 0 0 1 564.844 73.779 A 19.338 19.338 0 0 1 558.987 76.548 A 21.613 21.613 0 0 1 558.936 76.563 Q 555.664 77.49 552.002 77.49 Q 546.606 77.49 542.634 75.938 A 17.83 17.83 0 0 1 541.479 75.44 Q 537.158 73.389 534.937 69.067 Q 533.147 65.588 532.799 60.477 A 37.767 37.767 0 0 1 532.715 57.91 L 532.715 22.705 L 542.578 22.705 L 542.578 56.543 A 23.965 23.965 0 0 0 542.826 60.111 Q 543.412 63.994 545.386 66.26 Q 548.193 69.483 553.955 69.483 A 23.059 23.059 0 0 0 557.466 69.232 Q 559.323 68.945 560.837 68.331 A 11.027 11.027 0 0 0 562.866 67.261 A 11.688 11.688 0 0 0 566.876 62.553 A 15.328 15.328 0 0 0 567.603 60.767 Q 568.783 57.266 568.996 52.471 A 49.049 49.049 0 0 0 569.043 50.293 L 569.043 22.705 Z" id="10" vector-effect="non-scaling-stroke"/><path d="M 630.957 30.029 L 631.543 30.029 A 31.988 31.988 0 0 1 631.421 29.196 Q 631.295 28.258 631.169 26.996 A 118.244 118.244 0 0 1 631.055 25.781 Q 630.868 23.688 630.824 21.995 A 38.649 38.649 0 0 1 630.811 20.996 L 630.811 0.537 L 640.625 0.537 L 640.625 76.514 L 632.861 76.514 L 631.25 69.043 L 630.811 69.043 A 18.125 18.125 0 0 1 627.647 72.811 A 20.724 20.724 0 0 1 627.075 73.316 A 16.361 16.361 0 0 1 623.357 75.672 A 19.826 19.826 0 0 1 621.655 76.367 Q 618.703 77.42 614.785 77.486 A 31.368 31.368 0 0 1 614.258 77.49 A 22.492 22.492 0 0 1 606.901 76.338 A 18.844 18.844 0 0 1 598.511 70.508 A 22.219 22.219 0 0 1 594.515 63.186 Q 593.423 59.943 592.963 55.977 A 53.611 53.611 0 0 1 592.627 49.805 A 51.395 51.395 0 0 1 593.182 41.982 Q 593.811 37.91 595.151 34.642 A 21.762 21.762 0 0 1 598.608 28.833 A 19.431 19.431 0 0 1 612.827 21.781 A 26.312 26.312 0 0 1 614.502 21.729 A 25.983 25.983 0 0 1 618.053 21.959 Q 620.068 22.237 621.777 22.852 A 19.626 19.626 0 0 1 625.187 24.443 A 16.33 16.33 0 0 1 627.173 25.83 A 18.078 18.078 0 0 1 630.957 30.029 Z M 631.152 51.27 L 631.152 49.756 Q 631.152 40.137 628.003 34.985 A 9.99 9.99 0 0 0 622.461 30.701 Q 620.66 30.091 618.423 29.91 A 24.432 24.432 0 0 0 616.455 29.834 A 13.79 13.79 0 0 0 611.982 30.523 A 11.105 11.105 0 0 0 606.152 35.181 Q 603.574 39.157 602.913 45.415 A 43.728 43.728 0 0 0 602.686 50 A 40.745 40.745 0 0 0 603.024 55.437 Q 603.769 60.954 606.152 64.429 Q 609.619 69.483 616.553 69.483 Q 621.517 69.483 624.668 67.697 A 9.703 9.703 0 0 0 627.808 64.893 A 15.144 15.144 0 0 0 629.855 60.727 Q 631.122 56.845 631.152 51.27 Z" id="11" vector-effect="non-scaling-stroke"/><path d="M 689.355 22.315 L 688.33 31.445 Q 687.158 31.152 685.62 30.957 A 25.325 25.325 0 0 0 683.959 30.799 A 19.843 19.843 0 0 0 682.764 30.762 A 15.427 15.427 0 0 0 676.807 31.934 A 14.656 14.656 0 0 0 671.826 35.327 A 15.225 15.225 0 0 0 669.035 39.395 A 18.284 18.284 0 0 0 668.457 40.747 A 18.171 18.171 0 0 0 667.454 44.747 A 24.069 24.069 0 0 0 667.236 48.047 L 667.236 76.514 L 657.373 76.514 L 657.373 22.705 L 665.283 22.705 L 666.455 32.422 L 666.895 32.422 Q 668.555 29.492 670.923 27.051 A 18.288 18.288 0 0 1 676.392 23.169 A 15.625 15.625 0 0 1 681.865 21.779 A 18.718 18.718 0 0 1 683.252 21.729 A 28.845 28.845 0 0 1 684.977 21.783 A 36.601 36.601 0 0 1 686.426 21.9 A 41.333 41.333 0 0 1 687.639 22.038 Q 688.593 22.162 689.355 22.315 Z" id="12" vector-effect="non-scaling-stroke"/><path d="M 739.795 40.137 L 739.795 76.514 L 732.764 76.514 L 730.859 68.701 L 730.469 68.701 A 31.63 31.63 0 0 1 728.027 71.538 A 24.62 24.62 0 0 1 725.781 73.584 A 16.582 16.582 0 0 1 720.735 76.322 A 19.017 19.017 0 0 1 720.142 76.514 A 20.406 20.406 0 0 1 717.195 77.164 Q 715.691 77.388 713.967 77.458 A 39.716 39.716 0 0 1 712.354 77.49 A 23.249 23.249 0 0 1 707.739 77.051 A 18.392 18.392 0 0 1 703.662 75.733 Q 699.854 73.975 697.681 70.435 A 13.832 13.832 0 0 1 696.051 66.412 Q 695.508 64.16 695.508 61.426 A 16.93 16.93 0 0 1 696.321 56.041 A 13.548 13.548 0 0 1 701.807 48.975 A 21.784 21.784 0 0 1 707.105 46.442 Q 712.653 44.588 720.898 44.336 L 730.176 43.945 L 730.176 40.918 Q 730.176 35.011 727.706 32.367 A 6.381 6.381 0 0 0 727.368 32.031 A 9.258 9.258 0 0 0 723.538 29.948 Q 722.114 29.546 720.415 29.464 A 18.425 18.425 0 0 0 719.531 29.443 A 26.402 26.402 0 0 0 711.572 30.64 A 57.438 57.438 0 0 0 704.248 33.496 L 701.123 26.367 A 40.029 40.029 0 0 1 705.74 24.371 A 51.158 51.158 0 0 1 709.79 23.096 A 38.598 38.598 0 0 1 719.639 21.779 A 42.793 42.793 0 0 1 719.971 21.777 A 35.82 35.82 0 0 1 725.442 22.167 Q 731.396 23.089 734.863 26.196 A 13.541 13.541 0 0 1 738.562 31.891 Q 739.352 34.124 739.636 36.88 A 31.823 31.823 0 0 1 739.795 40.137 Z M 730.078 55.225 L 730.078 50.391 L 722.559 50.733 A 53.052 53.052 0 0 0 718.242 51.054 Q 713.935 51.568 711.259 52.792 A 10.425 10.425 0 0 0 709.448 53.833 Q 705.664 56.592 705.664 61.524 A 11.243 11.243 0 0 0 705.904 63.929 Q 706.23 65.414 706.996 66.508 A 6.023 6.023 0 0 0 708.252 67.822 A 9.103 9.103 0 0 0 711.579 69.413 Q 712.866 69.747 714.378 69.81 A 17.157 17.157 0 0 0 715.088 69.824 A 19.05 19.05 0 0 0 720.021 69.216 A 14.397 14.397 0 0 0 725.854 66.138 A 11.778 11.778 0 0 0 729.472 60.193 Q 730.002 58.242 730.069 55.901 A 23.886 23.886 0 0 0 730.078 55.225 Z" id="13" vector-effect="non-scaling-stroke"/><path d="M 781.592 22.705 L 781.592 30.274 L 768.359 30.274 L 768.359 76.514 L 758.545 76.514 L 758.545 30.274 L 749.414 30.274 L 749.414 25.537 L 758.545 22.559 L 758.545 18.848 A 35.768 35.768 0 0 1 758.792 14.502 Q 759.059 12.332 759.611 10.525 A 16.067 16.067 0 0 1 760.645 7.935 A 13.675 13.675 0 0 1 763.783 3.818 A 12.78 12.78 0 0 1 766.675 1.904 Q 770.237 0.179 775.183 0.017 A 31.751 31.751 0 0 1 776.221 0 A 33.719 33.719 0 0 1 779.809 0.183 A 26.467 26.467 0 0 1 782.397 0.586 A 47.868 47.868 0 0 1 784.397 1.046 Q 785.481 1.321 786.426 1.624 A 26.393 26.393 0 0 1 787.256 1.904 L 784.717 9.424 A 37.138 37.138 0 0 0 782.959 8.905 A 49.117 49.117 0 0 0 781.006 8.423 A 19.128 19.128 0 0 0 777.582 7.978 A 21.996 21.996 0 0 0 776.66 7.959 A 10.426 10.426 0 0 0 774.222 8.226 A 6.49 6.49 0 0 0 770.386 10.693 A 8.73 8.73 0 0 0 769.151 13.136 Q 768.359 15.497 768.359 18.945 L 768.359 22.705 L 781.592 22.705 Z" id="14" vector-effect="non-scaling-stroke"/></g></svg>